<svg width="532" height="296" viewBox="0 0 532 296" fill="none" xmlns="http://www.w3.org/2000/svg">
<path d="M386.248 196.896H390.216L396.232 213.984L395.656 213.76L400.2 202.08L401.768 206.72L395.496 221.088L386.248 196.896ZM397.512 196.896H400.904L407.496 213.696L406.824 213.568L412.456 196.896H416.104L407.016 221.024L397.512 196.896ZM426.976 196.768C428.192 196.768 429.312 196.939 430.336 197.28C431.381 197.6 432.266 198.069 432.992 198.688C433.738 199.307 434.314 200.075 434.72 200.992C435.146 201.888 435.36 202.933 435.36 204.128C435.36 205.045 435.221 205.952 434.944 206.848C434.666 207.744 434.218 208.555 433.6 209.28C432.981 210.005 432.17 210.592 431.168 211.04C430.165 211.467 428.917 211.68 427.424 211.68H424.032V220H420.608V196.768H426.976ZM427.36 208.416C428.234 208.416 428.96 208.277 429.536 208C430.133 207.723 430.592 207.381 430.912 206.976C431.253 206.549 431.488 206.101 431.616 205.632C431.765 205.141 431.84 204.672 431.84 204.224C431.84 203.797 431.765 203.349 431.616 202.88C431.488 202.411 431.253 201.963 430.912 201.536C430.592 201.109 430.154 200.757 429.6 200.48C429.045 200.203 428.362 200.064 427.552 200.064H424.032V208.416H427.36ZM431.296 210.4L437.312 220H433.344L427.232 210.496L431.296 210.4ZM441.889 196.768H445.313V216.704H456.929V220H441.889V196.768ZM461.92 220V196.768H468.384C470.688 196.768 472.651 197.12 474.272 197.824C475.894 198.528 477.195 199.456 478.176 200.608C479.179 201.76 479.904 203.04 480.352 204.448C480.822 205.856 481.056 207.275 481.056 208.704C481.056 210.432 480.747 211.989 480.128 213.376C479.51 214.763 478.667 215.957 477.6 216.96C476.534 217.941 475.307 218.699 473.92 219.232C472.534 219.744 471.062 220 469.504 220H461.92ZM465.344 216.704H468.864C470.123 216.704 471.275 216.523 472.32 216.16C473.387 215.797 474.304 215.264 475.072 214.56C475.862 213.856 476.47 212.992 476.896 211.968C477.323 210.944 477.536 209.771 477.536 208.448C477.536 207.019 477.291 205.781 476.8 204.736C476.331 203.669 475.702 202.795 474.912 202.112C474.123 201.408 473.238 200.896 472.256 200.576C471.296 200.235 470.315 200.064 469.312 200.064H465.344V216.704Z" fill="#006400"/>
<path d="M234.5 217.433C244.758 217.433 253.075 209.391 253.075 199.472C253.075 189.553 244.758 181.512 234.5 181.512C224.242 181.512 215.925 189.553 215.925 199.472C215.925 209.391 224.242 217.433 234.5 217.433Z" stroke="#006400" stroke-width="6" stroke-linecap="round" stroke-linejoin="round"/>
<path d="M269.242 188.557L260.998 191.147" stroke="#E2B208" stroke-width="6" stroke-linecap="round" stroke-linejoin="round"/>
<path d="M255.972 228.049L245.418 214.002" stroke="#006400" stroke-width="6" stroke-linecap="round" stroke-linejoin="round"/>
<path d="M213.028 228.049L218.123 221.268" stroke="#E2B208" stroke-width="6" stroke-linecap="round" stroke-linejoin="round"/>
<path d="M199.758 188.557L208.002 191.147" stroke="#E2B208" stroke-width="6" stroke-linecap="round" stroke-linejoin="round"/>
<path d="M285.141 183.562C284.201 180.725 282.627 178.123 280.529 175.941C278.431 173.76 275.861 172.052 273.003 170.94C270.145 169.827 267.069 169.338 263.993 169.506C260.917 169.675 257.917 170.497 255.207 171.913C255.763 168.979 255.645 165.961 254.861 163.076C254.077 160.19 252.647 157.506 250.671 155.214C248.695 152.922 246.223 151.078 243.428 149.813C240.634 148.547 237.586 147.891 234.5 147.891C231.414 147.891 228.366 148.547 225.572 149.813C222.777 151.078 220.305 152.922 218.329 155.214C216.353 157.506 214.923 160.19 214.139 163.076C213.355 165.961 213.237 168.979 213.793 171.913C211.078 170.495 208.074 169.672 204.993 169.501C201.912 169.33 198.831 169.816 195.966 170.925C193.101 172.033 190.523 173.737 188.415 175.916C186.307 178.095 184.72 180.695 183.766 183.533C182.813 186.37 182.516 189.376 182.897 192.337C183.278 195.298 184.328 198.142 185.972 200.667C187.616 203.192 189.813 205.337 192.41 206.949C195.006 208.562 197.937 209.603 200.995 209.999C198.762 212.057 197.023 214.565 195.903 217.345C194.783 220.126 194.309 223.11 194.514 226.087C194.72 229.064 195.599 231.961 197.091 234.573C198.582 237.185 200.649 239.448 203.146 241.201C205.642 242.955 208.506 244.157 211.536 244.721C214.566 245.286 217.687 245.199 220.679 244.468C223.67 243.737 226.459 242.378 228.847 240.489C231.236 238.6 233.166 236.227 234.5 233.536C235.834 236.227 237.764 238.601 240.152 240.49C242.541 242.379 245.33 243.738 248.321 244.469C251.313 245.2 254.434 245.287 257.464 244.723C260.494 244.158 263.359 242.956 265.855 241.203C268.352 239.449 270.419 237.186 271.911 234.574C273.402 231.962 274.282 229.064 274.487 226.087C274.692 223.11 274.217 220.126 273.097 217.345C271.977 214.565 270.239 212.057 268.005 209.999C271.058 209.605 273.985 208.565 276.576 206.953C279.167 205.341 281.358 203.196 282.994 200.672C284.631 198.148 285.671 195.306 286.042 192.348C286.413 189.391 286.106 186.391 285.141 183.562Z" stroke="#E2B208" stroke-width="6" stroke-linecap="round" stroke-linejoin="round"/>
<path d="M234.5 164.15V172.531" stroke="#E2B208" stroke-width="6" stroke-linecap="round" stroke-linejoin="round"/>
<path d="M88.5262 203.34C88.9535 200.784 89.7594 198.68 90.9439 197.028C92.102 195.34 93.5651 194.157 95.333 193.479C97.1062 192.77 99.1449 192.608 101.449 192.993C102.806 193.22 104.113 193.649 105.37 194.281C106.627 194.913 107.732 195.779 108.683 196.879C109.609 197.942 110.279 199.271 110.694 200.865C111.077 202.454 111.092 204.306 110.738 206.42L109.899 211.439L122.161 213.488L121.315 218.554L86.9434 212.809L88.5262 203.34ZM105.862 205.605C106.073 204.343 106.045 203.251 105.777 202.33C105.477 201.404 105.036 200.649 104.452 200.065C103.874 199.449 103.253 198.989 102.59 198.683C101.901 198.341 101.273 198.122 100.705 198.027C100.073 197.922 99.3922 197.921 98.6609 198.026C97.9033 198.094 97.1851 198.315 96.5063 198.688C95.7959 199.056 95.1828 199.619 94.6669 200.376C94.1194 201.128 93.7428 202.12 93.537 203.35L92.6665 208.558L105.023 210.624L105.862 205.605Z" fill="white"/>
<path d="M94.3357 172.98L96.2143 168.407L130.713 182.578L128.835 187.151L94.3357 172.98Z" fill="white"/>
<path d="M141.149 164.533C140.061 166.076 138.761 167.255 137.248 168.068C135.71 168.862 134.041 169.174 132.244 169.004C130.446 168.833 128.605 168.084 126.722 166.756C124.865 165.448 123.536 163.944 122.737 162.245C121.956 160.52 121.655 158.781 121.833 157.028C122.004 155.23 122.615 153.586 123.666 152.095C124.772 150.525 126.015 149.483 127.396 148.969C128.768 148.409 130.102 148.155 131.397 148.207L131.831 148.924L128.851 146.236L131.478 142.509L147.918 154.095L145.07 158.136L140.95 155.233L142.235 155.492C142.371 155.744 142.515 156.179 142.668 156.795C142.794 157.393 142.864 158.128 142.877 158.998C142.908 159.842 142.801 160.745 142.554 161.706C142.299 162.623 141.831 163.565 141.149 164.533ZM138.627 161.112C139.235 160.249 139.622 159.367 139.788 158.465C139.953 157.564 139.914 156.675 139.67 155.799C139.427 154.922 138.977 154.116 138.321 153.38L134.908 150.974C134.028 150.667 133.151 150.578 132.278 150.707C131.378 150.816 130.523 151.114 129.711 151.599C128.918 152.058 128.227 152.706 127.637 153.543C126.973 154.484 126.6 155.513 126.518 156.63C126.41 157.728 126.595 158.798 127.074 159.841C127.553 160.883 128.329 161.782 129.401 162.538C130.421 163.257 131.516 163.676 132.685 163.795C133.872 163.888 135 163.704 136.068 163.243C137.111 162.764 137.964 162.054 138.627 161.112Z" fill="white"/>
<path d="M147.517 126.501L150.726 129.837L150.187 129.468C149.815 127.923 149.911 126.374 150.475 124.821C151.018 123.243 152.041 121.856 153.543 120.661C155.02 119.485 156.583 118.956 158.232 119.075C159.906 119.174 161.313 119.914 162.455 121.296L171.723 132.937L167.855 136.016L159.663 125.727C159 124.946 158.244 124.485 157.395 124.343C156.526 124.176 155.606 124.458 154.634 125.191C153.783 125.869 153.217 126.749 152.934 127.833C152.632 128.892 152.629 130.019 152.926 131.214C153.223 132.409 153.83 133.582 154.747 134.734L160.458 141.906L156.59 144.986L144.063 129.252L147.517 126.501Z" fill="white"/>
<path d="M171.848 99.949L176.331 97.864L180.076 105.916L184.95 103.649L186.59 107.174L181.715 109.441L188.537 124.108L184.054 126.193L177.233 111.526L174.012 113.024L172.372 109.499L175.593 108.001L171.848 99.949Z" fill="white"/>
<path d="M227.347 94.2096L227.858 98.8095L227.656 98.1889C228.303 96.7375 229.323 95.5678 230.716 94.6796C232.108 93.7595 233.764 93.2828 235.684 93.2497C237.571 93.2172 239.133 93.7504 240.368 94.8492C241.635 95.9475 242.3 97.3923 242.363 99.1835L242.619 114.061L237.676 114.146L237.449 100.996C237.4 99.9732 237.081 99.1465 236.495 98.5165C235.907 97.8546 235.005 97.5181 233.789 97.507C232.701 97.5258 231.715 97.8789 230.831 98.5662C229.946 99.2216 229.257 100.114 228.764 101.242C228.272 102.371 228.038 103.671 228.064 105.143L228.222 114.31L223.278 114.395L222.932 94.2857L227.347 94.2096Z" fill="white"/>
<path d="M260.621 117.939C258.826 117.465 257.5 116.535 256.642 115.149C255.784 113.764 255.549 112.212 255.937 110.494L259.755 96.0625L264.534 97.3269L261.171 110.042C260.971 111.048 261.032 111.941 261.355 112.722C261.718 113.48 262.467 114.026 263.603 114.359C264.655 114.637 265.665 114.574 266.633 114.168C267.64 113.739 268.519 113.045 269.27 112.085C270.059 111.102 270.642 109.899 271.019 108.476L273.351 99.6593L278.131 100.924L272.987 120.367L268.671 119.225L269.491 114.626L269.48 115.417C268.849 116.177 268.068 116.815 267.137 117.33C266.215 117.814 265.194 118.107 264.075 118.208C262.948 118.34 261.796 118.25 260.621 117.939Z" fill="white"/>
<path d="M297.915 109.848L295.574 115.133L295.732 114.344C296.792 113.537 297.965 112.993 299.25 112.71C300.534 112.428 301.748 112.343 302.889 112.456C304.074 112.556 304.989 112.783 305.635 113.136L303.077 117.317C301.775 116.497 300.458 116.105 299.125 116.143C297.82 116.195 296.618 116.56 295.519 117.236C294.421 117.912 293.565 118.812 292.951 119.935L288.694 127.728L284.397 125.381L294.039 107.731L297.915 109.848Z" fill="white"/>
<path d="M308.547 141.848C307.432 140.887 306.52 139.763 305.812 138.477C305.125 137.167 304.776 135.831 304.765 134.471L308.183 133.74C308.315 134.91 308.573 135.935 308.956 136.814C309.384 137.69 309.901 138.389 310.507 138.911C310.992 139.329 311.47 139.656 311.941 139.894C312.434 140.107 312.916 140.184 313.388 140.126C313.86 140.069 314.284 139.821 314.66 139.385C315.099 138.876 315.274 138.33 315.185 137.746C315.097 137.163 314.869 136.545 314.503 135.891C314.137 135.238 313.724 134.565 313.264 133.873C312.334 132.354 311.866 130.937 311.859 129.621C311.872 128.281 312.328 127.09 313.227 126.048C313.916 125.248 314.757 124.664 315.751 124.295C316.79 123.923 317.92 123.861 319.141 124.111C320.362 124.36 321.579 125.007 322.791 126.052C323.906 127.013 324.773 127.992 325.391 128.99C326.031 129.963 326.453 131.066 326.658 132.299L323.261 133.3C323.201 132.488 322.962 131.712 322.544 130.971C322.171 130.227 321.752 129.635 321.288 129.193C320.852 128.817 320.389 128.545 319.9 128.377C319.432 128.185 318.974 128.128 318.526 128.207C318.099 128.261 317.74 128.458 317.447 128.797C317.005 129.261 316.818 129.797 316.886 130.405C316.999 131.009 317.251 131.648 317.641 132.323C318.052 132.973 318.441 133.624 318.807 134.278C319.371 135.144 319.776 136.021 320.024 136.91C320.293 137.775 320.367 138.621 320.247 139.446C320.127 140.272 319.711 141.097 319.001 141.921C318.228 142.818 317.279 143.479 316.153 143.903C315.049 144.303 313.839 144.359 312.524 144.071C311.23 143.758 309.905 143.017 308.547 141.848Z" fill="white"/>
<path d="M327.271 162.451C325.917 160.547 325.123 158.658 324.888 156.782C324.68 154.888 324.968 153.113 325.753 151.455C326.564 149.779 327.816 148.338 329.511 147.133C331.128 145.983 332.876 145.349 334.755 145.23C336.678 145.118 338.523 145.476 340.288 146.301C342.072 147.153 343.566 148.426 344.772 150.121C346.33 152.312 346.98 154.579 346.722 156.922C346.483 159.291 345.392 161.539 343.45 163.667L329.348 153.611L331.027 151.003L342.455 158.955L341.362 158.495C341.948 157.608 342.3 156.611 342.417 155.507C342.561 154.384 342.216 153.235 341.381 152.062C340.713 151.123 339.876 150.443 338.869 150.02C337.906 149.605 336.863 149.464 335.739 149.595C334.66 149.734 333.586 150.184 332.517 150.945C331.422 151.724 330.614 152.631 330.095 153.668C329.621 154.713 329.427 155.793 329.514 156.909C329.619 158.051 330.025 159.118 330.729 160.109C331.23 160.813 331.833 161.385 332.539 161.825C333.264 162.292 334.026 162.673 334.825 162.968L333.159 166.921C332 166.45 330.889 165.827 329.826 165.051C328.809 164.282 327.957 163.416 327.271 162.451Z" fill="white"/>
<path d="M358.58 176.873L353.412 179.461L354.035 178.953C355.366 179.005 356.617 179.331 357.788 179.931C358.959 180.53 359.949 181.237 360.758 182.05C361.608 182.882 362.17 183.639 362.444 184.322L357.81 185.921C357.328 184.459 356.56 183.319 355.508 182.499C354.468 181.71 353.309 181.226 352.031 181.049C350.753 180.871 349.52 181.021 348.332 181.497L340.09 184.8L338.268 180.255L356.937 172.774L358.58 176.873Z" fill="white"/>
<path d="M336.714 205.492L368.113 214.242L368.78 218.704L337.431 210.286L336.714 205.492ZM346.866 209.119L365.459 196.487L366.282 201.994L349.895 212.5L346.866 209.119Z" fill="white"/>
</svg>
