<svg width="30" height="30" viewBox="0 0 30 30" fill="none" xmlns="http://www.w3.org/2000/svg">
<path d="M10.7694 22.3069H25.2508C25.7347 22.3069 26.1566 21.8363 26.1566 21.204C26.1566 20.5717 25.7347 20.1011 25.2508 20.1011H10.9803C10.273 20.1011 9.83874 19.5129 9.72702 18.6159L9.52848 17.0719H25.2755C27.0872 17.0719 28.0179 15.7484 28.2786 13.6457L29.2713 5.8667C29.2962 5.67559 29.3208 5.44025 29.3208 5.30793C29.3208 4.60209 28.8741 4.11685 28.1917 4.11685H7.92773L7.69197 2.24929C7.56786 1.117 7.22043 0.543488 5.95467 0.543488H1.59913C1.10277 0.543488 0.680847 1.05822 0.680847 1.64641C0.680847 2.24929 1.10277 2.76396 1.59913 2.76396H5.79335L7.7788 18.91C8.03939 20.9981 8.97006 22.3069 10.7694 22.3069ZM27.2112 6.33726L26.3304 13.381C26.2311 14.2926 25.8216 14.8514 25.0895 14.8514L9.25549 14.8662L8.20072 6.33726H27.2112ZM11.7497 29.4535C12.8665 29.4535 13.76 28.4094 13.76 27.0713C13.76 25.7478 12.8665 24.6891 11.7497 24.6891C10.6205 24.6891 9.72702 25.7478 9.72702 27.0713C9.72702 28.4094 10.6205 29.4535 11.7497 29.4535ZM23.3522 29.4535C24.4813 29.4535 25.3749 28.4094 25.3749 27.0713C25.3749 25.7478 24.4813 24.6891 23.3522 24.6891C22.2353 24.6891 21.3295 25.7478 21.3295 27.0713C21.3295 28.4094 22.2353 29.4535 23.3522 29.4535Z" fill="black"></path>
</svg>
